<svg xmlns="http://www.w3.org/2000/svg" width="264" height="240" viewBox="0 0 264 240" shape-rendering="crispEdges">
<rect width="264" height="240" fill="#1a1a2e"/>
<rect x="24" y="24" width="12" height="12" fill="#440011"/>
<rect x="36" y="24" width="12" height="12" fill="#440011"/>
<rect x="48" y="24" width="12" height="12" fill="#440011"/>
<rect x="60" y="24" width="12" height="12" fill="#440011"/>
<rect x="180" y="24" width="12" height="12" fill="#440011"/>
<rect x="192" y="24" width="12" height="12" fill="#440011"/>
<rect x="204" y="24" width="12" height="12" fill="#440011"/>
<rect x="216" y="24" width="12" height="12" fill="#440011"/>
<rect x="12" y="36" width="12" height="12" fill="#440011"/>
<rect x="24" y="36" width="12" height="12" fill="#cc2233"/>
<rect x="36" y="36" width="12" height="12" fill="#cc2233"/>
<rect x="48" y="36" width="12" height="12" fill="#cc2233"/>
<rect x="60" y="36" width="12" height="12" fill="#cc2233"/>
<rect x="72" y="36" width="12" height="12" fill="#440011"/>
<rect x="168" y="36" width="12" height="12" fill="#440011"/>
<rect x="180" y="36" width="12" height="12" fill="#cc2233"/>
<rect x="192" y="36" width="12" height="12" fill="#cc2233"/>
<rect x="204" y="36" width="12" height="12" fill="#cc2233"/>
<rect x="216" y="36" width="12" height="12" fill="#cc2233"/>
<rect x="228" y="36" width="12" height="12" fill="#440011"/>
<rect x="0" y="48" width="12" height="12" fill="#440011"/>
<rect x="12" y="48" width="12" height="12" fill="#cc2233"/>
<rect x="24" y="48" width="12" height="12" fill="#ff5566"/>
<rect x="36" y="48" width="12" height="12" fill="#cc2233"/>
<rect x="48" y="48" width="12" height="12" fill="#cc2233"/>
<rect x="60" y="48" width="12" height="12" fill="#cc2233"/>
<rect x="72" y="48" width="12" height="12" fill="#cc2233"/>
<rect x="84" y="48" width="12" height="12" fill="#440011"/>
<rect x="156" y="48" width="12" height="12" fill="#440011"/>
<rect x="168" y="48" width="12" height="12" fill="#cc2233"/>
<rect x="180" y="48" width="12" height="12" fill="#cc2233"/>
<rect x="192" y="48" width="12" height="12" fill="#cc2233"/>
<rect x="204" y="48" width="12" height="12" fill="#cc2233"/>
<rect x="216" y="48" width="12" height="12" fill="#ff5566"/>
<rect x="228" y="48" width="12" height="12" fill="#cc2233"/>
<rect x="240" y="48" width="12" height="12" fill="#440011"/>
<rect x="0" y="60" width="12" height="12" fill="#440011"/>
<rect x="12" y="60" width="12" height="12" fill="#cc2233"/>
<rect x="24" y="60" width="12" height="12" fill="#cc2233"/>
<rect x="36" y="60" width="12" height="12" fill="#cc2233"/>
<rect x="48" y="60" width="12" height="12" fill="#cc2233"/>
<rect x="60" y="60" width="12" height="12" fill="#cc2233"/>
<rect x="72" y="60" width="12" height="12" fill="#cc2233"/>
<rect x="84" y="60" width="12" height="12" fill="#cc2233"/>
<rect x="96" y="60" width="12" height="12" fill="#440011"/>
<rect x="144" y="60" width="12" height="12" fill="#440011"/>
<rect x="156" y="60" width="12" height="12" fill="#cc2233"/>
<rect x="168" y="60" width="12" height="12" fill="#cc2233"/>
<rect x="180" y="60" width="12" height="12" fill="#cc2233"/>
<rect x="192" y="60" width="12" height="12" fill="#cc2233"/>
<rect x="204" y="60" width="12" height="12" fill="#cc2233"/>
<rect x="216" y="60" width="12" height="12" fill="#cc2233"/>
<rect x="228" y="60" width="12" height="12" fill="#cc2233"/>
<rect x="240" y="60" width="12" height="12" fill="#440011"/>
<rect x="0" y="72" width="12" height="12" fill="#440011"/>
<rect x="12" y="72" width="12" height="12" fill="#cc2233"/>
<rect x="24" y="72" width="12" height="12" fill="#cc2233"/>
<rect x="36" y="72" width="12" height="12" fill="#cc2233"/>
<rect x="48" y="72" width="12" height="12" fill="#cc2233"/>
<rect x="60" y="72" width="12" height="12" fill="#cc2233"/>
<rect x="72" y="72" width="12" height="12" fill="#cc2233"/>
<rect x="84" y="72" width="12" height="12" fill="#cc2233"/>
<rect x="96" y="72" width="12" height="12" fill="#cc2233"/>
<rect x="108" y="72" width="12" height="12" fill="#440011"/>
<rect x="132" y="72" width="12" height="12" fill="#440011"/>
<rect x="144" y="72" width="12" height="12" fill="#cc2233"/>
<rect x="156" y="72" width="12" height="12" fill="#cc2233"/>
<rect x="168" y="72" width="12" height="12" fill="#cc2233"/>
<rect x="180" y="72" width="12" height="12" fill="#cc2233"/>
<rect x="192" y="72" width="12" height="12" fill="#cc2233"/>
<rect x="204" y="72" width="12" height="12" fill="#cc2233"/>
<rect x="216" y="72" width="12" height="12" fill="#cc2233"/>
<rect x="228" y="72" width="12" height="12" fill="#cc2233"/>
<rect x="240" y="72" width="12" height="12" fill="#440011"/>
<rect x="0" y="84" width="12" height="12" fill="#440011"/>
<rect x="12" y="84" width="12" height="12" fill="#cc2233"/>
<rect x="24" y="84" width="12" height="12" fill="#cc2233"/>
<rect x="36" y="84" width="12" height="12" fill="#cc2233"/>
<rect x="48" y="84" width="12" height="12" fill="#cc2233"/>
<rect x="60" y="84" width="12" height="12" fill="#cc2233"/>
<rect x="72" y="84" width="12" height="12" fill="#cc2233"/>
<rect x="84" y="84" width="12" height="12" fill="#cc2233"/>
<rect x="96" y="84" width="12" height="12" fill="#cc2233"/>
<rect x="108" y="84" width="12" height="12" fill="#cc2233"/>
<rect x="120" y="84" width="12" height="12" fill="#440011"/>
<rect x="132" y="84" width="12" height="12" fill="#cc2233"/>
<rect x="144" y="84" width="12" height="12" fill="#cc2233"/>
<rect x="156" y="84" width="12" height="12" fill="#cc2233"/>
<rect x="168" y="84" width="12" height="12" fill="#cc2233"/>
<rect x="180" y="84" width="12" height="12" fill="#cc2233"/>
<rect x="192" y="84" width="12" height="12" fill="#cc2233"/>
<rect x="204" y="84" width="12" height="12" fill="#cc2233"/>
<rect x="216" y="84" width="12" height="12" fill="#cc2233"/>
<rect x="228" y="84" width="12" height="12" fill="#cc2233"/>
<rect x="240" y="84" width="12" height="12" fill="#440011"/>
<rect x="12" y="96" width="12" height="12" fill="#440011"/>
<rect x="24" y="96" width="12" height="12" fill="#cc2233"/>
<rect x="36" y="96" width="12" height="12" fill="#cc2233"/>
<rect x="48" y="96" width="12" height="12" fill="#cc2233"/>
<rect x="60" y="96" width="12" height="12" fill="#cc2233"/>
<rect x="72" y="96" width="12" height="12" fill="#cc2233"/>
<rect x="84" y="96" width="12" height="12" fill="#cc2233"/>
<rect x="96" y="96" width="12" height="12" fill="#cc2233"/>
<rect x="108" y="96" width="12" height="12" fill="#cc2233"/>
<rect x="120" y="96" width="12" height="12" fill="#cc2233"/>
<rect x="132" y="96" width="12" height="12" fill="#cc2233"/>
<rect x="144" y="96" width="12" height="12" fill="#cc2233"/>
<rect x="156" y="96" width="12" height="12" fill="#cc2233"/>
<rect x="168" y="96" width="12" height="12" fill="#cc2233"/>
<rect x="180" y="96" width="12" height="12" fill="#cc2233"/>
<rect x="192" y="96" width="12" height="12" fill="#cc2233"/>
<rect x="204" y="96" width="12" height="12" fill="#cc2233"/>
<rect x="216" y="96" width="12" height="12" fill="#cc2233"/>
<rect x="228" y="96" width="12" height="12" fill="#440011"/>
<rect x="24" y="108" width="12" height="12" fill="#440011"/>
<rect x="36" y="108" width="12" height="12" fill="#cc2233"/>
<rect x="48" y="108" width="12" height="12" fill="#cc2233"/>
<rect x="60" y="108" width="12" height="12" fill="#cc2233"/>
<rect x="72" y="108" width="12" height="12" fill="#cc2233"/>
<rect x="84" y="108" width="12" height="12" fill="#cc2233"/>
<rect x="96" y="108" width="12" height="12" fill="#cc2233"/>
<rect x="108" y="108" width="12" height="12" fill="#cc2233"/>
<rect x="120" y="108" width="12" height="12" fill="#cc2233"/>
<rect x="132" y="108" width="12" height="12" fill="#cc2233"/>
<rect x="144" y="108" width="12" height="12" fill="#cc2233"/>
<rect x="156" y="108" width="12" height="12" fill="#cc2233"/>
<rect x="168" y="108" width="12" height="12" fill="#cc2233"/>
<rect x="180" y="108" width="12" height="12" fill="#cc2233"/>
<rect x="192" y="108" width="12" height="12" fill="#cc2233"/>
<rect x="204" y="108" width="12" height="12" fill="#cc2233"/>
<rect x="216" y="108" width="12" height="12" fill="#440011"/>
<rect x="36" y="120" width="12" height="12" fill="#440011"/>
<rect x="48" y="120" width="12" height="12" fill="#cc2233"/>
<rect x="60" y="120" width="12" height="12" fill="#cc2233"/>
<rect x="72" y="120" width="12" height="12" fill="#cc2233"/>
<rect x="84" y="120" width="12" height="12" fill="#cc2233"/>
<rect x="96" y="120" width="12" height="12" fill="#cc2233"/>
<rect x="108" y="120" width="12" height="12" fill="#cc2233"/>
<rect x="120" y="120" width="12" height="12" fill="#cc2233"/>
<rect x="132" y="120" width="12" height="12" fill="#cc2233"/>
<rect x="144" y="120" width="12" height="12" fill="#cc2233"/>
<rect x="156" y="120" width="12" height="12" fill="#cc2233"/>
<rect x="168" y="120" width="12" height="12" fill="#cc2233"/>
<rect x="180" y="120" width="12" height="12" fill="#cc2233"/>
<rect x="192" y="120" width="12" height="12" fill="#cc2233"/>
<rect x="204" y="120" width="12" height="12" fill="#440011"/>
<rect x="48" y="132" width="12" height="12" fill="#440011"/>
<rect x="60" y="132" width="12" height="12" fill="#cc2233"/>
<rect x="72" y="132" width="12" height="12" fill="#cc2233"/>
<rect x="84" y="132" width="12" height="12" fill="#cc2233"/>
<rect x="96" y="132" width="12" height="12" fill="#cc2233"/>
<rect x="108" y="132" width="12" height="12" fill="#44aaff"/>
<rect x="120" y="132" width="12" height="12" fill="#001133"/>
<rect x="132" y="132" width="12" height="12" fill="#001133"/>
<rect x="144" y="132" width="12" height="12" fill="#44aaff"/>
<rect x="156" y="132" width="12" height="12" fill="#cc2233"/>
<rect x="168" y="132" width="12" height="12" fill="#cc2233"/>
<rect x="180" y="132" width="12" height="12" fill="#cc2233"/>
<rect x="192" y="132" width="12" height="12" fill="#440011"/>
<rect x="60" y="144" width="12" height="12" fill="#440011"/>
<rect x="72" y="144" width="12" height="12" fill="#cc2233"/>
<rect x="84" y="144" width="12" height="12" fill="#cc2233"/>
<rect x="96" y="144" width="12" height="12" fill="#cc2233"/>
<rect x="108" y="144" width="12" height="12" fill="#001133"/>
<rect x="120" y="144" width="12" height="12" fill="#0055aa"/>
<rect x="132" y="144" width="12" height="12" fill="#001133"/>
<rect x="144" y="144" width="12" height="12" fill="#001133"/>
<rect x="156" y="144" width="12" height="12" fill="#cc2233"/>
<rect x="168" y="144" width="12" height="12" fill="#cc2233"/>
<rect x="180" y="144" width="12" height="12" fill="#440011"/>
<rect x="72" y="156" width="12" height="12" fill="#440011"/>
<rect x="84" y="156" width="12" height="12" fill="#cc2233"/>
<rect x="96" y="156" width="12" height="12" fill="#cc2233"/>
<rect x="108" y="156" width="12" height="12" fill="#001133"/>
<rect x="120" y="156" width="12" height="12" fill="#001133"/>
<rect x="132" y="156" width="12" height="12" fill="#001133"/>
<rect x="144" y="156" width="12" height="12" fill="#cc2233"/>
<rect x="156" y="156" width="12" height="12" fill="#cc2233"/>
<rect x="168" y="156" width="12" height="12" fill="#440011"/>
<rect x="84" y="168" width="12" height="12" fill="#440011"/>
<rect x="96" y="168" width="12" height="12" fill="#cc2233"/>
<rect x="108" y="168" width="12" height="12" fill="#001133"/>
<rect x="120" y="168" width="12" height="12" fill="#001133"/>
<rect x="132" y="168" width="12" height="12" fill="#001133"/>
<rect x="144" y="168" width="12" height="12" fill="#cc2233"/>
<rect x="156" y="168" width="12" height="12" fill="#440011"/>
<rect x="96" y="180" width="12" height="12" fill="#440011"/>
<rect x="108" y="180" width="12" height="12" fill="#001133"/>
<rect x="120" y="180" width="12" height="12" fill="#001133"/>
<rect x="132" y="180" width="12" height="12" fill="#001133"/>
<rect x="144" y="180" width="12" height="12" fill="#440011"/>
<rect x="108" y="192" width="12" height="12" fill="#440011"/>
<rect x="120" y="192" width="12" height="12" fill="#001133"/>
<rect x="132" y="192" width="12" height="12" fill="#440011"/>
<rect x="120" y="204" width="12" height="12" fill="#440011"/>
</svg>