<svg xmlns="http://www.w3.org/2000/svg" width="512" height="512" viewBox="0 0 512 512" shape-rendering="crispEdges">
<rect x="80" y="64" width="16" height="16" fill="#221100"/>
<rect x="96" y="64" width="16" height="16" fill="#ff4455"/>
<rect x="112" y="64" width="16" height="16" fill="#221100"/>
<rect x="208" y="64" width="16" height="16" fill="#221100"/>
<rect x="224" y="64" width="16" height="16" fill="#ff4455"/>
<rect x="240" y="64" width="16" height="16" fill="#221100"/>
<rect x="64" y="80" width="16" height="16" fill="#221100"/>
<rect x="80" y="80" width="16" height="16" fill="#221100"/>
<rect x="96" y="80" width="16" height="16" fill="#ff8899"/>
<rect x="112" y="80" width="16" height="16" fill="#cc1133"/>
<rect x="128" y="80" width="16" height="16" fill="#221100"/>
<rect x="192" y="80" width="16" height="16" fill="#221100"/>
<rect x="208" y="80" width="16" height="16" fill="#cc1133"/>
<rect x="224" y="80" width="16" height="16" fill="#ff8899"/>
<rect x="240" y="80" width="16" height="16" fill="#221100"/>
<rect x="256" y="80" width="16" height="16" fill="#221100"/>
<rect x="64" y="96" width="16" height="16" fill="#221100"/>
<rect x="96" y="96" width="16" height="16" fill="#221100"/>
<rect x="112" y="96" width="16" height="16" fill="#ff4455"/>
<rect x="128" y="96" width="16" height="16" fill="#221100"/>
<rect x="192" y="96" width="16" height="16" fill="#221100"/>
<rect x="208" y="96" width="16" height="16" fill="#ff4455"/>
<rect x="224" y="96" width="16" height="16" fill="#221100"/>
<rect x="256" y="96" width="16" height="16" fill="#221100"/>
<rect x="112" y="112" width="16" height="16" fill="#221100"/>
<rect x="128" y="112" width="16" height="16" fill="#cc1133"/>
<rect x="144" y="112" width="16" height="16" fill="#221100"/>
<rect x="160" y="112" width="16" height="16" fill="#cc1133"/>
<rect x="176" y="112" width="16" height="16" fill="#221100"/>
<rect x="192" y="112" width="16" height="16" fill="#cc1133"/>
<rect x="208" y="112" width="16" height="16" fill="#221100"/>
<rect x="80" y="128" width="16" height="16" fill="#221100"/>
<rect x="96" y="128" width="16" height="16" fill="#221100"/>
<rect x="112" y="128" width="16" height="16" fill="#221100"/>
<rect x="128" y="128" width="16" height="16" fill="#ff4455"/>
<rect x="144" y="128" width="16" height="16" fill="#ff8899"/>
<rect x="160" y="128" width="16" height="16" fill="#ff4455"/>
<rect x="176" y="128" width="16" height="16" fill="#ff8899"/>
<rect x="192" y="128" width="16" height="16" fill="#ff4455"/>
<rect x="208" y="128" width="16" height="16" fill="#221100"/>
<rect x="224" y="128" width="16" height="16" fill="#221100"/>
<rect x="240" y="128" width="16" height="16" fill="#221100"/>
<rect x="64" y="144" width="16" height="16" fill="#221100"/>
<rect x="80" y="144" width="16" height="16" fill="#221100"/>
<rect x="96" y="144" width="16" height="16" fill="#fff0aa"/>
<rect x="112" y="144" width="16" height="16" fill="#fff0aa"/>
<rect x="128" y="144" width="16" height="16" fill="#fff0aa"/>
<rect x="144" y="144" width="16" height="16" fill="#221100"/>
<rect x="160" y="144" width="16" height="16" fill="#cc1133"/>
<rect x="176" y="144" width="16" height="16" fill="#221100"/>
<rect x="192" y="144" width="16" height="16" fill="#ffdd44"/>
<rect x="208" y="144" width="16" height="16" fill="#ffdd44"/>
<rect x="224" y="144" width="16" height="16" fill="#ffdd44"/>
<rect x="240" y="144" width="16" height="16" fill="#221100"/>
<rect x="256" y="144" width="16" height="16" fill="#221100"/>
<rect x="48" y="160" width="16" height="16" fill="#221100"/>
<rect x="64" y="160" width="16" height="16" fill="#221100"/>
<rect x="80" y="160" width="16" height="16" fill="#fff0aa"/>
<rect x="96" y="160" width="16" height="16" fill="#fff0aa"/>
<rect x="112" y="160" width="16" height="16" fill="#fff0aa"/>
<rect x="128" y="160" width="16" height="16" fill="#fff0aa"/>
<rect x="144" y="160" width="16" height="16" fill="#fff0aa"/>
<rect x="160" y="160" width="16" height="16" fill="#ffdd44"/>
<rect x="176" y="160" width="16" height="16" fill="#ffdd44"/>
<rect x="192" y="160" width="16" height="16" fill="#ffdd44"/>
<rect x="208" y="160" width="16" height="16" fill="#ffdd44"/>
<rect x="224" y="160" width="16" height="16" fill="#cc9922"/>
<rect x="240" y="160" width="16" height="16" fill="#cc9922"/>
<rect x="256" y="160" width="16" height="16" fill="#221100"/>
<rect x="272" y="160" width="16" height="16" fill="#221100"/>
<rect x="48" y="176" width="16" height="16" fill="#221100"/>
<rect x="64" y="176" width="16" height="16" fill="#fff0aa"/>
<rect x="80" y="176" width="16" height="16" fill="#fff0aa"/>
<rect x="96" y="176" width="16" height="16" fill="#fff0aa"/>
<rect x="112" y="176" width="16" height="16" fill="#fff0aa"/>
<rect x="128" y="176" width="16" height="16" fill="#221100"/>
<rect x="192" y="176" width="16" height="16" fill="#221100"/>
<rect x="208" y="176" width="16" height="16" fill="#cc9922"/>
<rect x="224" y="176" width="16" height="16" fill="#cc9922"/>
<rect x="240" y="176" width="16" height="16" fill="#cc9922"/>
<rect x="256" y="176" width="16" height="16" fill="#cc9922"/>
<rect x="272" y="176" width="16" height="16" fill="#221100"/>
<rect x="32" y="192" width="16" height="16" fill="#221100"/>
<rect x="48" y="192" width="16" height="16" fill="#221100"/>
<rect x="64" y="192" width="16" height="16" fill="#fff0aa"/>
<rect x="80" y="192" width="16" height="16" fill="#fff0aa"/>
<rect x="96" y="192" width="16" height="16" fill="#fff0aa"/>
<rect x="112" y="192" width="16" height="16" fill="#221100"/>
<rect x="208" y="192" width="16" height="16" fill="#221100"/>
<rect x="224" y="192" width="16" height="16" fill="#cc9922"/>
<rect x="240" y="192" width="16" height="16" fill="#cc9922"/>
<rect x="256" y="192" width="16" height="16" fill="#cc9922"/>
<rect x="272" y="192" width="16" height="16" fill="#221100"/>
<rect x="288" y="192" width="16" height="16" fill="#221100"/>
<rect x="32" y="208" width="16" height="16" fill="#221100"/>
<rect x="48" y="208" width="16" height="16" fill="#fff0aa"/>
<rect x="64" y="208" width="16" height="16" fill="#fff0aa"/>
<rect x="80" y="208" width="16" height="16" fill="#fff0aa"/>
<rect x="96" y="208" width="16" height="16" fill="#221100"/>
<rect x="224" y="208" width="16" height="16" fill="#221100"/>
<rect x="240" y="208" width="16" height="16" fill="#cc9922"/>
<rect x="256" y="208" width="16" height="16" fill="#cc9922"/>
<rect x="272" y="208" width="16" height="16" fill="#cc9922"/>
<rect x="288" y="208" width="16" height="16" fill="#221100"/>
<rect x="304" y="208" width="16" height="16" fill="#221100"/>
<rect x="320" y="208" width="16" height="16" fill="#221100"/>
<rect x="336" y="208" width="16" height="16" fill="#221100"/>
<rect x="352" y="208" width="16" height="16" fill="#221100"/>
<rect x="368" y="208" width="16" height="16" fill="#221100"/>
<rect x="384" y="208" width="16" height="16" fill="#221100"/>
<rect x="400" y="208" width="16" height="16" fill="#221100"/>
<rect x="416" y="208" width="16" height="16" fill="#221100"/>
<rect x="432" y="208" width="16" height="16" fill="#221100"/>
<rect x="448" y="208" width="16" height="16" fill="#221100"/>
<rect x="464" y="208" width="16" height="16" fill="#221100"/>
<rect x="32" y="224" width="16" height="16" fill="#221100"/>
<rect x="48" y="224" width="16" height="16" fill="#fff0aa"/>
<rect x="64" y="224" width="16" height="16" fill="#fff0aa"/>
<rect x="80" y="224" width="16" height="16" fill="#fff0aa"/>
<rect x="240" y="224" width="16" height="16" fill="#cc9922"/>
<rect x="256" y="224" width="16" height="16" fill="#cc9922"/>
<rect x="272" y="224" width="16" height="16" fill="#886611"/>
<rect x="288" y="224" width="16" height="16" fill="#221100"/>
<rect x="304" y="224" width="16" height="16" fill="#fff0aa"/>
<rect x="320" y="224" width="16" height="16" fill="#fff0aa"/>
<rect x="336" y="224" width="16" height="16" fill="#fff0aa"/>
<rect x="352" y="224" width="16" height="16" fill="#fff0aa"/>
<rect x="368" y="224" width="16" height="16" fill="#fff0aa"/>
<rect x="384" y="224" width="16" height="16" fill="#fff0aa"/>
<rect x="400" y="224" width="16" height="16" fill="#fff0aa"/>
<rect x="416" y="224" width="16" height="16" fill="#fff0aa"/>
<rect x="432" y="224" width="16" height="16" fill="#fff0aa"/>
<rect x="448" y="224" width="16" height="16" fill="#fff0aa"/>
<rect x="464" y="224" width="16" height="16" fill="#221100"/>
<rect x="32" y="240" width="16" height="16" fill="#221100"/>
<rect x="48" y="240" width="16" height="16" fill="#fff0aa"/>
<rect x="64" y="240" width="16" height="16" fill="#fff0aa"/>
<rect x="80" y="240" width="16" height="16" fill="#ffdd44"/>
<rect x="240" y="240" width="16" height="16" fill="#cc9922"/>
<rect x="256" y="240" width="16" height="16" fill="#886611"/>
<rect x="272" y="240" width="16" height="16" fill="#886611"/>
<rect x="288" y="240" width="16" height="16" fill="#221100"/>
<rect x="304" y="240" width="16" height="16" fill="#cc9922"/>
<rect x="320" y="240" width="16" height="16" fill="#cc9922"/>
<rect x="336" y="240" width="16" height="16" fill="#cc9922"/>
<rect x="352" y="240" width="16" height="16" fill="#cc9922"/>
<rect x="368" y="240" width="16" height="16" fill="#cc9922"/>
<rect x="384" y="240" width="16" height="16" fill="#cc9922"/>
<rect x="400" y="240" width="16" height="16" fill="#cc9922"/>
<rect x="416" y="240" width="16" height="16" fill="#cc9922"/>
<rect x="432" y="240" width="16" height="16" fill="#cc9922"/>
<rect x="448" y="240" width="16" height="16" fill="#cc9922"/>
<rect x="464" y="240" width="16" height="16" fill="#221100"/>
<rect x="32" y="256" width="16" height="16" fill="#221100"/>
<rect x="48" y="256" width="16" height="16" fill="#fff0aa"/>
<rect x="64" y="256" width="16" height="16" fill="#ffdd44"/>
<rect x="80" y="256" width="16" height="16" fill="#ffdd44"/>
<rect x="240" y="256" width="16" height="16" fill="#886611"/>
<rect x="256" y="256" width="16" height="16" fill="#886611"/>
<rect x="272" y="256" width="16" height="16" fill="#886611"/>
<rect x="288" y="256" width="16" height="16" fill="#221100"/>
<rect x="304" y="256" width="16" height="16" fill="#886611"/>
<rect x="320" y="256" width="16" height="16" fill="#886611"/>
<rect x="336" y="256" width="16" height="16" fill="#886611"/>
<rect x="352" y="256" width="16" height="16" fill="#886611"/>
<rect x="368" y="256" width="16" height="16" fill="#886611"/>
<rect x="384" y="256" width="16" height="16" fill="#886611"/>
<rect x="400" y="256" width="16" height="16" fill="#886611"/>
<rect x="416" y="256" width="16" height="16" fill="#886611"/>
<rect x="432" y="256" width="16" height="16" fill="#886611"/>
<rect x="448" y="256" width="16" height="16" fill="#886611"/>
<rect x="464" y="256" width="16" height="16" fill="#221100"/>
<rect x="32" y="272" width="16" height="16" fill="#221100"/>
<rect x="48" y="272" width="16" height="16" fill="#ffdd44"/>
<rect x="64" y="272" width="16" height="16" fill="#ffdd44"/>
<rect x="80" y="272" width="16" height="16" fill="#ffdd44"/>
<rect x="96" y="272" width="16" height="16" fill="#221100"/>
<rect x="224" y="272" width="16" height="16" fill="#221100"/>
<rect x="240" y="272" width="16" height="16" fill="#886611"/>
<rect x="256" y="272" width="16" height="16" fill="#886611"/>
<rect x="272" y="272" width="16" height="16" fill="#886611"/>
<rect x="288" y="272" width="16" height="16" fill="#221100"/>
<rect x="304" y="272" width="16" height="16" fill="#221100"/>
<rect x="320" y="272" width="16" height="16" fill="#221100"/>
<rect x="336" y="272" width="16" height="16" fill="#221100"/>
<rect x="352" y="272" width="16" height="16" fill="#221100"/>
<rect x="368" y="272" width="16" height="16" fill="#221100"/>
<rect x="384" y="272" width="16" height="16" fill="#221100"/>
<rect x="400" y="272" width="16" height="16" fill="#221100"/>
<rect x="416" y="272" width="16" height="16" fill="#221100"/>
<rect x="432" y="272" width="16" height="16" fill="#221100"/>
<rect x="448" y="272" width="16" height="16" fill="#221100"/>
<rect x="464" y="272" width="16" height="16" fill="#221100"/>
<rect x="32" y="288" width="16" height="16" fill="#221100"/>
<rect x="48" y="288" width="16" height="16" fill="#221100"/>
<rect x="64" y="288" width="16" height="16" fill="#ffdd44"/>
<rect x="80" y="288" width="16" height="16" fill="#ffdd44"/>
<rect x="96" y="288" width="16" height="16" fill="#cc9922"/>
<rect x="112" y="288" width="16" height="16" fill="#221100"/>
<rect x="208" y="288" width="16" height="16" fill="#221100"/>
<rect x="224" y="288" width="16" height="16" fill="#886611"/>
<rect x="240" y="288" width="16" height="16" fill="#886611"/>
<rect x="256" y="288" width="16" height="16" fill="#886611"/>
<rect x="272" y="288" width="16" height="16" fill="#221100"/>
<rect x="288" y="288" width="16" height="16" fill="#221100"/>
<rect x="336" y="288" width="16" height="16" fill="#221100"/>
<rect x="352" y="288" width="16" height="16" fill="#221100"/>
<rect x="368" y="288" width="16" height="16" fill="#221100"/>
<rect x="416" y="288" width="16" height="16" fill="#221100"/>
<rect x="432" y="288" width="16" height="16" fill="#221100"/>
<rect x="448" y="288" width="16" height="16" fill="#221100"/>
<rect x="48" y="304" width="16" height="16" fill="#221100"/>
<rect x="64" y="304" width="16" height="16" fill="#ffdd44"/>
<rect x="80" y="304" width="16" height="16" fill="#cc9922"/>
<rect x="96" y="304" width="16" height="16" fill="#cc9922"/>
<rect x="112" y="304" width="16" height="16" fill="#cc9922"/>
<rect x="128" y="304" width="16" height="16" fill="#221100"/>
<rect x="192" y="304" width="16" height="16" fill="#221100"/>
<rect x="208" y="304" width="16" height="16" fill="#886611"/>
<rect x="224" y="304" width="16" height="16" fill="#886611"/>
<rect x="240" y="304" width="16" height="16" fill="#886611"/>
<rect x="256" y="304" width="16" height="16" fill="#886611"/>
<rect x="272" y="304" width="16" height="16" fill="#221100"/>
<rect x="336" y="304" width="16" height="16" fill="#221100"/>
<rect x="352" y="304" width="16" height="16" fill="#cc9922"/>
<rect x="368" y="304" width="16" height="16" fill="#221100"/>
<rect x="416" y="304" width="16" height="16" fill="#221100"/>
<rect x="432" y="304" width="16" height="16" fill="#221100"/>
<rect x="448" y="304" width="16" height="16" fill="#221100"/>
<rect x="48" y="320" width="16" height="16" fill="#221100"/>
<rect x="64" y="320" width="16" height="16" fill="#221100"/>
<rect x="80" y="320" width="16" height="16" fill="#cc9922"/>
<rect x="96" y="320" width="16" height="16" fill="#cc9922"/>
<rect x="112" y="320" width="16" height="16" fill="#cc9922"/>
<rect x="128" y="320" width="16" height="16" fill="#cc9922"/>
<rect x="144" y="320" width="16" height="16" fill="#cc9922"/>
<rect x="160" y="320" width="16" height="16" fill="#cc9922"/>
<rect x="176" y="320" width="16" height="16" fill="#886611"/>
<rect x="192" y="320" width="16" height="16" fill="#886611"/>
<rect x="208" y="320" width="16" height="16" fill="#886611"/>
<rect x="224" y="320" width="16" height="16" fill="#886611"/>
<rect x="240" y="320" width="16" height="16" fill="#886611"/>
<rect x="256" y="320" width="16" height="16" fill="#221100"/>
<rect x="272" y="320" width="16" height="16" fill="#221100"/>
<rect x="336" y="320" width="16" height="16" fill="#221100"/>
<rect x="352" y="320" width="16" height="16" fill="#221100"/>
<rect x="368" y="320" width="16" height="16" fill="#221100"/>
<rect x="64" y="336" width="16" height="16" fill="#221100"/>
<rect x="80" y="336" width="16" height="16" fill="#221100"/>
<rect x="96" y="336" width="16" height="16" fill="#cc9922"/>
<rect x="112" y="336" width="16" height="16" fill="#cc9922"/>
<rect x="128" y="336" width="16" height="16" fill="#cc9922"/>
<rect x="144" y="336" width="16" height="16" fill="#cc9922"/>
<rect x="160" y="336" width="16" height="16" fill="#886611"/>
<rect x="176" y="336" width="16" height="16" fill="#886611"/>
<rect x="192" y="336" width="16" height="16" fill="#886611"/>
<rect x="208" y="336" width="16" height="16" fill="#886611"/>
<rect x="224" y="336" width="16" height="16" fill="#886611"/>
<rect x="240" y="336" width="16" height="16" fill="#221100"/>
<rect x="256" y="336" width="16" height="16" fill="#221100"/>
<rect x="80" y="352" width="16" height="16" fill="#221100"/>
<rect x="96" y="352" width="16" height="16" fill="#221100"/>
<rect x="112" y="352" width="16" height="16" fill="#221100"/>
<rect x="128" y="352" width="16" height="16" fill="#cc9922"/>
<rect x="144" y="352" width="16" height="16" fill="#886611"/>
<rect x="160" y="352" width="16" height="16" fill="#886611"/>
<rect x="176" y="352" width="16" height="16" fill="#886611"/>
<rect x="192" y="352" width="16" height="16" fill="#886611"/>
<rect x="208" y="352" width="16" height="16" fill="#221100"/>
<rect x="224" y="352" width="16" height="16" fill="#221100"/>
<rect x="240" y="352" width="16" height="16" fill="#221100"/>
<rect x="112" y="368" width="16" height="16" fill="#221100"/>
<rect x="128" y="368" width="16" height="16" fill="#221100"/>
<rect x="144" y="368" width="16" height="16" fill="#221100"/>
<rect x="160" y="368" width="16" height="16" fill="#221100"/>
<rect x="176" y="368" width="16" height="16" fill="#221100"/>
<rect x="192" y="368" width="16" height="16" fill="#221100"/>
<rect x="208" y="368" width="16" height="16" fill="#221100"/>
</svg>